# xmcd
#
# Track frame offsets: 
#        150
#        10913
#        26217
#        41452
#        54704
#        70575
#        83791
#        97963
#        111850
#        126523
#        136447
#        152508
#        163215
#        172736
#        187308
#        199538
#
# Disc length: 2836 seconds
#
# Revision: 0
# Processed by: cddbd v1.5.2PL0 Copyright (c) Steve Scherf et al.
# Submitted via: ExactAudioCopy v0.99pb4
#
DISCID=d70b1210
DTITLE=Edith Piaf - Sous le ciel de Paris
DYEAR=2007
DGENRE=Vocal
TTITLE0=La valse de l'amour
TTITLE1=Chante-moi
TTITLE2=Je hais les dimanches
TTITLE3=La rue aux chansons
TTITLE4=Jézébel
TTITLE5=Au bal de la change
TTITLE6=Notre-dame de Paris
TTITLE7=N'y vas pas Manuel
TTITLE8=L'effet que tu me fais
TTITLE9=Johnny tu n'es pas un ange
TTITLE10=Sous le ciel de Paris
TTITLE11=Enfin le Printemps
TTITLE12=L'homme à la moto
TTITLE13=Les amants d'un jour
TTITLE14=Une dame
TTITLE15=La foule
EXTD=
EXTT0=
EXTT1=
EXTT2=
EXTT3=
EXTT4=
EXTT5=
EXTT6=
EXTT7=
EXTT8=
EXTT9=
EXTT10=
EXTT11=
EXTT12=
EXTT13=
EXTT14=
EXTT15=
PLAYORDER=
